Altinn-DINExp-Bold.ufo
<glyph name="exclam" format="2">
  <advance width="254"/>
  <unicode hex="0021"/>
  <outline>
    <contour>
      <point x="55" y="707" type="line"/>
      <point x="200" y="707" type="line"/>
      <point x="175" y="236" type="line"/>
      <point x="80" y="236" type="line"/>
    </contour>
    <contour>
      <point x="60" y="133" type="line"/>
      <point x="195" y="133" type="line"/>
      <point x="195" y="0" type="line"/>
      <point x="60" y="0" type="line"/>
    </contour>
  </outline>
</glyph>
<glyph name="parenright" format="2">
  <advance width="330"/>
  <unicode hex="0029"/>
  <outline>
    <contour>
      <point x="159" y="221"/>
      <point x="159" y="336" type="qcurve" smooth="yes"/>
      <point x="159" y="451"/>
      <point x="102" y="666"/>
      <point x="47" y="758" type="qcurve"/>
      <point x="140" y="758" type="line"/>
      <point x="211" y="669"/>
      <point x="285" y="456"/>
      <point x="285" y="337" type="qcurve" smooth="yes"/>
      <point x="285" y="219"/>
      <point x="212" y="5"/>
      <point x="141" y="-86" type="qcurve"/>
      <point x="47" y="-86" type="line"/>
      <point x="101" y="6"/>
    </contour>
  </outline>
</glyph>
<glyph name="comma" format="2">
  <advance width="197"/>
  <unicode hex="002C"/>
  <outline>
    <contour>
      <point x="39" y="140" type="line"/>
      <point x="159" y="140" type="line"/>
      <point x="159" y="-65" type="line"/>
      <point x="39" y="-166" type="line"/>
    </contour>
  </outline>
</glyph>
<glyph name="hyphen" format="2">
  <advance width="409"/>
  <unicode hex="002D"/>
  <outline>
    <contour>
      <point x="47" y="413" type="line"/>
      <point x="364" y="413" type="line"/>
      <point x="364" y="295" type="line"/>
      <point x="47" y="295" type="line"/>
    </contour>
  </outline>
</glyph>
<glyph name="two" format="2">
  <advance width="557"/>
  <unicode hex="0032"/>
  <outline>
    <contour>
      <point x="55" y="106" type="line"/>
      <point x="319" y="389" type="line" smooth="yes"/>
      <point x="353" y="422"/>
      <point x="380" y="474"/>
      <point x="380" y="505" type="qcurve" smooth="yes"/>
      <point x="380" y="516" type="line" smooth="yes"/>
      <point x="380" y="557"/>
      <point x="326" y="604"/>
      <point x="279" y="604" type="qcurve" smooth="yes"/>
      <point x="233" y="604"/>
      <point x="179" y="559"/>
      <point x="179" y="519" type="qcurve" smooth="yes"/>
      <point x="179" y="503" type="line"/>
      <point x="51" y="503" type="line"/>
      <point x="51" y="527" type="line" smooth="yes"/>
      <point x="51" y="614"/>
      <point x="174" y="718"/>
      <point x="281" y="718" type="qcurve" smooth="yes"/>
      <point x="353" y="718"/>
      <point x="459" y="668"/>
      <point x="515" y="578"/>
      <point x="515" y="519" type="qcurve" smooth="yes"/>
      <point x="515" y="506" type="line" smooth="yes"/>
      <point x="515" y="452"/>
      <point x="472" y="364"/>
      <point x="427" y="318" type="qcurve" smooth="yes"/>
      <point x="237" y="118" type="line"/>
      <point x="516" y="118" type="line"/>
      <point x="516" y="0" type="line"/>
      <point x="55" y="0" type="line"/>
    </contour>
  </outline>
</glyph>
<glyph name="seven" format="2">
  <advance width="519"/>
  <unicode hex="0037"/>
  <outline>
    <contour>
      <point x="492" y="707" type="line"/>
      <point x="492" y="590" type="line"/>
      <point x="243" y="0" type="line"/>
      <point x="106" y="0" type="line"/>
      <point x="357" y="590" type="line"/>
      <point x="34" y="590" type="line"/>
      <point x="34" y="707" type="line"/>
    </contour>
  </outline>
</glyph>
<glyph name="nine" format="2">
  <advance width="582"/>
  <unicode hex="0039"/>
  <outline>
    <contour>
      <point x="330" y="290" type="line"/>
      <point x="298" y="276"/>
      <point x="256" y="275" type="qcurve" smooth="yes"/>
      <point x="164" y="275"/>
      <point x="51" y="386"/>
      <point x="51" y="478" type="qcurve" smooth="yes"/>
      <point x="51" y="500" type="line" smooth="yes"/>
      <point x="51" y="602"/>
      <point x="182" y="718"/>
      <point x="296" y="718" type="qcurve" smooth="yes"/>
      <point x="412" y="718"/>
      <point x="542" y="604"/>
      <point x="542" y="504" type="qcurve" smooth="yes"/>
      <point x="542" y="482" type="line" smooth="yes"/>
      <point x="542" y="403"/>
      <point x="489" y="314" type="qcurve" smooth="yes"/>
      <point x="307" y="0" type="line"/>
      <point x="163" y="0" type="line"/>
    </contour>
    <contour>
      <point x="407" y="439"/>
      <point x="407" y="485" type="qcurve" smooth="yes"/>
      <point x="407" y="505" type="line" smooth="yes"/>
      <point x="407" y="552"/>
      <point x="348" y="604"/>
      <point x="296" y="604" type="qcurve" smooth="yes"/>
      <point x="244" y="604"/>
      <point x="185" y="551"/>
      <point x="185" y="504" type="qcurve" smooth="yes"/>
      <point x="185" y="486" type="line" smooth="yes"/>
      <point x="185" y="439"/>
      <point x="244" y="387"/>
      <point x="296" y="387" type="qcurve" smooth="yes"/>
      <point x="348" y="387"/>
    </contour>
  </outline>
</glyph>
<glyph name="question" format="2">
  <advance width="512"/>
  <unicode hex="003F"/>
  <outline>
    <contour>
      <point x="184" y="245" type="line" smooth="yes"/>
      <point x="184" y="294"/>
      <point x="207" y="351"/>
      <point x="243" y="384" type="qcurve" smooth="yes"/>
      <point x="295" y="438" type="line" smooth="yes"/>
      <point x="324" y="465"/>
      <point x="346" y="504"/>
      <point x="346" y="527" type="qcurve" smooth="yes"/>
      <point x="346" y="563"/>
      <point x="297" y="601"/>
      <point x="248" y="601" type="qcurve" smooth="yes"/>
      <point x="199" y="601"/>
      <point x="153" y="561"/>
      <point x="152" y="520" type="qcurve"/>
      <point x="28" y="520" type="line"/>
      <point x="34" y="717"/>
      <point x="251" y="717" type="qcurve" smooth="yes"/>
      <point x="357" y="717"/>
      <point x="477" y="620"/>
      <point x="477" y="534" type="qcurve" smooth="yes"/>
      <point x="477" y="449"/>
      <point x="411" y="386" type="qcurve"/>
      <point x="352" y="324" type="line" smooth="yes"/>
      <point x="328" y="301"/>
      <point x="311" y="262"/>
      <point x="311" y="229" type="qcurve" smooth="yes"/>
      <point x="311" y="198" type="line"/>
      <point x="184" y="198" type="line"/>
    </contour>
    <contour>
      <point x="180" y="129" type="line"/>
      <point x="314" y="129" type="line"/>
      <point x="314" y="0" type="line"/>
      <point x="180" y="0" type="line"/>
    </contour>
  </outline>
</glyph>
<glyph name="A" format="2">
  <advance width="697"/>
  <unicode hex="0041"/>
  <outline>
    <contour>
      <point x="499" y="137" type="line"/>
      <point x="199" y="137" type="line"/>
      <point x="147" y="0" type="line"/>
      <point x="4" y="0" type="line"/>
      <point x="294" y="707" type="line"/>
      <point x="403" y="707" type="line"/>
      <point x="693" y="0" type="line"/>
      <point x="550" y="0" type="line"/>
    </contour>
    <contour>
      <point x="457" y="249" type="line"/>
      <point x="348" y="537" type="line"/>
      <point x="241" y="249" type="line"/>
    </contour>
  </outline>
</glyph>
<glyph name="B" format="2">
  <advance width="669"/>
  <unicode hex="0042"/>
  <outline>
    <contour>
      <point x="624" y="260"/>
      <point x="624" y="203" type="qcurve" smooth="yes"/>
      <point x="624" y="106"/>
      <point x="498" y="0"/>
      <point x="380" y="0" type="qcurve" smooth="yes"/>
      <point x="60" y="0" type="line"/>
      <point x="60" y="707" type="line"/>
      <point x="367" y="707" type="line" smooth="yes"/>
      <point x="487" y="707"/>
      <point x="613" y="605"/>
      <point x="613" y="510" type="qcurve" smooth="yes"/>
      <point x="613" y="462"/>
      <point x="561" y="385"/>
      <point x="513" y="364" type="qcurve"/>
      <point x="567" y="342"/>
    </contour>
    <contour>
      <point x="195" y="590" type="line"/>
      <point x="195" y="418" type="line"/>
      <point x="368" y="418" type="line" smooth="yes"/>
      <point x="480" y="418"/>
      <point x="479" y="502" type="qcurve" smooth="yes"/>
      <point x="479" y="590"/>
      <point x="373" y="590" type="qcurve" smooth="yes"/>
    </contour>
    <contour>
      <point x="490" y="212" type="qcurve" smooth="yes"/>
      <point x="490" y="301"/>
      <point x="377" y="301" type="qcurve" smooth="yes"/>
      <point x="195" y="301" type="line"/>
      <point x="195" y="117" type="line"/>
      <point x="382" y="117" type="line" smooth="yes"/>
      <point x="490" y="117"/>
    </contour>
  </outline>
</glyph>
<glyph name="I" format="2">
  <advance width="267"/>
  <unicode hex="0049"/>
  <outline>
    <contour>
      <point x="67" y="707" type="line"/>
      <point x="201" y="707" type="line"/>
      <point x="201" y="0" type="line"/>
      <point x="67" y="0" type="line"/>
    </contour>
  </outline>
</glyph>
<glyph name="J" format="2">
  <advance width="370"/>
  <unicode hex="004A"/>
  <outline>
    <contour>
      <point x="25" y="118" type="line"/>
      <point x="87" y="118" type="line" smooth="yes"/>
      <point x="134" y="118"/>
      <point x="169" y="154"/>
      <point x="169" y="200" type="qcurve" smooth="yes"/>
      <point x="169" y="707" type="line"/>
      <point x="304" y="707" type="line"/>
      <point x="304" y="177" type="line" smooth="yes"/>
      <point x="304" y="89"/>
      <point x="212" y="0"/>
      <point x="122" y="0" type="qcurve" smooth="yes"/>
      <point x="25" y="0" type="line"/>
    </contour>
  </outline>
</glyph>
<glyph name="N" format="2">
  <advance width="715"/>
  <unicode hex="004E"/>
  <outline>
    <contour>
      <point x="655" y="707" type="line"/>
      <point x="655" y="0" type="line"/>
      <point x="521" y="0" type="line"/>
      <point x="195" y="468" type="line"/>
      <point x="195" y="0" type="line"/>
      <point x="60" y="0" type="line"/>
      <point x="60" y="707" type="line"/>
      <point x="195" y="707" type="line"/>
      <point x="521" y="238" type="line"/>
      <point x="521" y="707" type="line"/>
    </contour>
  </outline>
</glyph>
<glyph name="O" format="2">
  <advance width="689"/>
  <unicode hex="004F"/>
  <outline>
    <contour>
      <point x="56" y="144"/>
      <point x="56" y="299" type="qcurve" smooth="yes"/>
      <point x="56" y="410" type="line" smooth="yes"/>
      <point x="56" y="565"/>
      <point x="213" y="720"/>
      <point x="351" y="720" type="qcurve" smooth="yes"/>
      <point x="487" y="720"/>
      <point x="643" y="564"/>
      <point x="643" y="410" type="qcurve" smooth="yes"/>
      <point x="643" y="299" type="line" smooth="yes"/>
      <point x="643" y="145"/>
      <point x="484" y="-11"/>
      <point x="347" y="-11" type="qcurve" smooth="yes"/>
      <point x="210" y="-11"/>
    </contour>
    <contour>
      <point x="509" y="301" type="qcurve" smooth="yes"/>
      <point x="509" y="402" type="line" smooth="yes"/>
      <point x="509" y="602"/>
      <point x="351" y="602" type="qcurve" smooth="yes"/>
      <point x="270" y="602"/>
      <point x="191" y="504"/>
      <point x="191" y="402" type="qcurve" smooth="yes"/>
      <point x="191" y="301" type="line" smooth="yes"/>
      <point x="191" y="204"/>
      <point x="270" y="110"/>
      <point x="351" y="110" type="qcurve" smooth="yes"/>
      <point x="509" y="110"/>
    </contour>
  </outline>
</glyph>
<glyph name="Q" format="2">
  <advance width="689"/>
  <unicode hex="0051"/>
  <outline>
    <contour>
      <point x="541" y="47" type="qcurve"/>
      <point x="622" y="-101" type="line"/>
      <point x="519" y="-158" type="line"/>
      <point x="434" y="-2" type="line"/>
      <point x="394" y="-11"/>
      <point x="347" y="-11" type="qcurve" smooth="yes"/>
      <point x="210" y="-11"/>
      <point x="56" y="144"/>
      <point x="56" y="299" type="qcurve" smooth="yes"/>
      <point x="56" y="410" type="line" smooth="yes"/>
      <point x="56" y="565"/>
      <point x="213" y="720"/>
      <point x="351" y="720" type="qcurve" smooth="yes"/>
      <point x="487" y="720"/>
      <point x="643" y="564"/>
      <point x="643" y="410" type="qcurve" smooth="yes"/>
      <point x="643" y="299" type="line" smooth="yes"/>
      <point x="643" y="127"/>
    </contour>
    <contour>
      <point x="270" y="110"/>
      <point x="351" y="110" type="qcurve" smooth="yes"/>
      <point x="509" y="110"/>
      <point x="509" y="301" type="qcurve" smooth="yes"/>
      <point x="509" y="402" type="line" smooth="yes"/>
      <point x="509" y="602"/>
      <point x="351" y="602" type="qcurve" smooth="yes"/>
      <point x="270" y="602"/>
      <point x="191" y="504"/>
      <point x="191" y="402" type="qcurve" smooth="yes"/>
      <point x="191" y="301" type="line" smooth="yes"/>
      <point x="191" y="204"/>
    </contour>
  </outline>
</glyph>
<glyph name="R" format="2">
  <advance width="679"/>
  <unicode hex="0052"/>
  <outline>
    <contour>
      <point x="335" y="278" type="line"/>
      <point x="195" y="278" type="line"/>
      <point x="195" y="0" type="line"/>
      <point x="60" y="0" type="line"/>
      <point x="60" y="707" type="line"/>
      <point x="368" y="707" type="line" smooth="yes"/>
      <point x="484" y="707"/>
      <point x="617" y="596"/>
      <point x="617" y="492" type="qcurve" smooth="yes"/>
      <point x="617" y="416"/>
      <point x="545" y="316"/>
      <point x="474" y="294" type="qcurve"/>
      <point x="649" y="0" type="line"/>
      <point x="489" y="0" type="line"/>
    </contour>
    <contour>
      <point x="195" y="392" type="line"/>
      <point x="372" y="392" type="line" smooth="yes"/>
      <point x="485" y="392"/>
      <point x="484" y="492" type="qcurve" smooth="yes"/>
      <point x="484" y="541"/>
      <point x="425" y="590"/>
      <point x="372" y="590" type="qcurve" smooth="yes"/>
      <point x="195" y="590" type="line"/>
    </contour>
  </outline>
</glyph>
<glyph name="T" format="2">
  <advance width="570"/>
  <unicode hex="0054"/>
  <outline>
    <contour>
      <point x="564" y="590" type="line"/>
      <point x="352" y="590" type="line"/>
      <point x="352" y="0" type="line"/>
      <point x="218" y="0" type="line"/>
      <point x="218" y="590" type="line"/>
      <point x="6" y="590" type="line"/>
      <point x="6" y="707" type="line"/>
      <point x="564" y="707" type="line"/>
    </contour>
  </outline>
</glyph>
<glyph name="W" format="2">
  <advance width="958"/>
  <unicode hex="0057"/>
  <outline>
    <contour>
      <point x="954" y="707" type="line"/>
      <point x="757" y="0" type="line"/>
      <point x="634" y="0" type="line"/>
      <point x="482" y="544" type="line"/>
      <point x="330" y="0" type="line"/>
      <point x="208" y="0" type="line"/>
      <point x="4" y="707" type="line"/>
      <point x="141" y="707" type="line"/>
      <point x="275" y="189" type="line"/>
      <point x="399" y="707" type="line"/>
      <point x="565" y="707" type="line"/>
      <point x="701" y="189" type="line"/>
      <point x="822" y="707" type="line"/>
    </contour>
  </outline>
</glyph>
<glyph name="Y" format="2">
  <advance width="622"/>
  <unicode hex="0059"/>
  <outline>
    <contour>
      <point x="379" y="292" type="line"/>
      <point x="379" y="0" type="line"/>
      <point x="245" y="0" type="line"/>
      <point x="245" y="291" type="line"/>
      <point x="4" y="707" type="line"/>
      <point x="156" y="707" type="line"/>
      <point x="311" y="411" type="line"/>
      <point x="467" y="707" type="line"/>
      <point x="618" y="707" type="line"/>
    </contour>
  </outline>
</glyph>
<glyph name="a" format="2">
  <advance width="566"/>
  <unicode hex="0061"/>
  <outline>
    <contour>
      <point x="511" y="436"/>
      <point x="511" y="340" type="qcurve" smooth="yes"/>
      <point x="511" y="0" type="line"/>
      <point x="388" y="0" type="line"/>
      <point x="388" y="49" type="line"/>
      <point x="356" y="19"/>
      <point x="285" y="-6"/>
      <point x="233" y="-6" type="qcurve" smooth="yes"/>
      <point x="137" y="-6"/>
      <point x="38" y="80"/>
      <point x="38" y="159" type="qcurve" smooth="yes"/>
      <point x="38" y="235"/>
      <point x="143" y="314"/>
      <point x="243" y="314" type="qcurve" smooth="yes"/>
      <point x="385" y="314" type="line"/>
      <point x="385" y="346" type="line" smooth="yes"/>
      <point x="385" y="441"/>
      <point x="272" y="441" type="qcurve" smooth="yes"/>
      <point x="221" y="441"/>
      <point x="175" y="404"/>
      <point x="175" y="376" type="qcurve" smooth="yes"/>
      <point x="175" y="373" type="line"/>
      <point x="54" y="373" type="line"/>
      <point x="54" y="376" type="line" smooth="yes"/>
      <point x="54" y="452"/>
      <point x="174" y="539"/>
      <point x="275" y="539" type="qcurve" smooth="yes"/>
      <point x="389" y="539"/>
    </contour>
    <contour>
      <point x="385" y="195" type="qcurve" smooth="yes"/>
      <point x="385" y="227" type="line"/>
      <point x="266" y="227" type="line" smooth="yes"/>
      <point x="212" y="227"/>
      <point x="161" y="196"/>
      <point x="161" y="162" type="qcurve" smooth="yes"/>
      <point x="161" y="130"/>
      <point x="211" y="95"/>
      <point x="261" y="95" type="qcurve" smooth="yes"/>
      <point x="385" y="96"/>
    </contour>
  </outline>
</glyph>
<glyph name="c" format="2">
  <advance width="572"/>
  <unicode hex="0063"/>
  <outline>
    <contour>
      <point x="47" y="116"/>
      <point x="47" y="236" type="qcurve" smooth="yes"/>
      <point x="47" y="299" type="line" smooth="yes"/>
      <point x="47" y="418"/>
      <point x="176" y="542"/>
      <point x="290" y="542" type="qcurve" smooth="yes"/>
      <point x="402" y="542"/>
      <point x="526" y="437"/>
      <point x="526" y="345" type="qcurve" smooth="yes"/>
      <point x="526" y="339" type="line"/>
      <point x="402" y="339" type="line"/>
      <point x="402" y="343" type="line" smooth="yes"/>
      <point x="402" y="383"/>
      <point x="344" y="429"/>
      <point x="293" y="429" type="qcurve" smooth="yes"/>
      <point x="234" y="429"/>
      <point x="173" y="366"/>
      <point x="173" y="297" type="qcurve" smooth="yes"/>
      <point x="173" y="237" type="line" smooth="yes"/>
      <point x="173" y="167"/>
      <point x="234" y="104"/>
      <point x="296" y="104" type="qcurve" smooth="yes"/>
      <point x="345" y="104"/>
      <point x="401" y="148"/>
      <point x="401" y="186" type="qcurve" smooth="yes"/>
      <point x="401" y="190" type="line"/>
      <point x="525" y="190" type="line"/>
      <point x="525" y="186" type="line" smooth="yes"/>
      <point x="525" y="95"/>
      <point x="400" y="-9"/>
      <point x="290" y="-9" type="qcurve" smooth="yes"/>
      <point x="176" y="-9"/>
    </contour>
  </outline>
</glyph>
<glyph name="e" format="2">
  <advance width="584"/>
  <unicode hex="0065"/>
  <outline>
    <contour>
      <point x="173" y="231" type="line"/>
      <point x="173" y="229" type="line" smooth="yes"/>
      <point x="173" y="101"/>
      <point x="304" y="101" type="qcurve" smooth="yes"/>
      <point x="348" y="101"/>
      <point x="404" y="134"/>
      <point x="409" y="164" type="qcurve"/>
      <point x="410" y="167" type="line"/>
      <point x="534" y="167" type="line"/>
      <point x="534" y="161" type="line"/>
      <point x="529" y="84"/>
      <point x="402" y="-9"/>
      <point x="299" y="-9" type="qcurve" smooth="yes"/>
      <point x="181" y="-9"/>
      <point x="47" y="120"/>
      <point x="47" y="244" type="qcurve" smooth="yes"/>
      <point x="47" y="290" type="line" smooth="yes"/>
      <point x="47" y="412"/>
      <point x="178" y="542"/>
      <point x="293" y="542" type="qcurve" smooth="yes"/>
      <point x="408" y="542"/>
      <point x="539" y="413"/>
      <point x="539" y="293" type="qcurve" smooth="yes"/>
      <point x="539" y="231" type="line"/>
    </contour>
    <contour>
      <point x="173" y="318" type="qcurve"/>
      <point x="412" y="318" type="line"/>
      <point x="412" y="326" type="line" smooth="yes"/>
      <point x="412" y="379"/>
      <point x="347" y="433"/>
      <point x="293" y="433" type="qcurve" smooth="yes"/>
      <point x="180" y="433"/>
    </contour>
  </outline>
</glyph>
<glyph name="f" format="2">
  <advance width="376"/>
  <unicode hex="0066"/>
  <outline>
    <contour>
      <point x="234" y="592"/>
      <point x="234" y="559" type="qcurve" smooth="yes"/>
      <point x="234" y="532" type="line"/>
      <point x="349" y="532" type="line"/>
      <point x="349" y="443" type="line"/>
      <point x="234" y="443" type="line"/>
      <point x="234" y="0" type="line"/>
      <point x="109" y="0" type="line"/>
      <point x="109" y="443" type="line"/>
      <point x="37" y="443" type="line"/>
      <point x="37" y="532" type="line"/>
      <point x="109" y="532" type="line"/>
      <point x="109" y="554" type="line" smooth="yes"/>
      <point x="109" y="630"/>
      <point x="188" y="707"/>
      <point x="266" y="707" type="qcurve" smooth="yes"/>
      <point x="349" y="707" type="line"/>
      <point x="349" y="621" type="line"/>
      <point x="302" y="621" type="line" smooth="yes"/>
      <point x="265" y="621"/>
    </contour>
  </outline>
</glyph>
<glyph name="l" format="2">
  <advance width="321"/>
  <unicode hex="006C"/>
  <outline>
    <contour>
      <point x="55" y="85"/>
      <point x="55" y="172" type="qcurve" smooth="yes"/>
      <point x="55" y="707" type="line"/>
      <point x="182" y="707" type="line"/>
      <point x="182" y="180" type="line" smooth="yes"/>
      <point x="182" y="141"/>
      <point x="214" y="110"/>
      <point x="255" y="110" type="qcurve" smooth="yes"/>
      <point x="303" y="110" type="line"/>
      <point x="303" y="0" type="line"/>
      <point x="232" y="0" type="line" smooth="yes"/>
      <point x="142" y="0"/>
    </contour>
  </outline>
</glyph>
<glyph name="n" format="2">
  <advance width="585"/>
  <unicode hex="006E"/>
  <outline>
    <contour>
      <point x="55" y="532" type="line"/>
      <point x="179" y="532" type="line"/>
      <point x="179" y="475" type="line"/>
      <point x="208" y="506"/>
      <point x="289" y="539"/>
      <point x="336" y="539" type="qcurve" smooth="yes"/>
      <point x="428" y="539"/>
      <point x="530" y="429"/>
      <point x="530" y="332" type="qcurve" smooth="yes"/>
      <point x="530" y="0" type="line"/>
      <point x="403" y="0" type="line"/>
      <point x="403" y="306" type="line" smooth="yes"/>
      <point x="403" y="426"/>
      <point x="298" y="426" type="qcurve" smooth="yes"/>
      <point x="244" y="426"/>
      <point x="182" y="364"/>
      <point x="182" y="301" type="qcurve" smooth="yes"/>
      <point x="182" y="0" type="line"/>
      <point x="55" y="0" type="line"/>
    </contour>
  </outline>
</glyph>
<glyph name="o" format="2">
  <advance width="576"/>
  <unicode hex="006F"/>
  <outline>
    <contour>
      <point x="47" y="116"/>
      <point x="47" y="236" type="qcurve" smooth="yes"/>
      <point x="47" y="299" type="line" smooth="yes"/>
      <point x="47" y="418"/>
      <point x="176" y="542"/>
      <point x="290" y="542" type="qcurve" smooth="yes"/>
      <point x="403" y="542"/>
      <point x="530" y="417"/>
      <point x="530" y="299" type="qcurve" smooth="yes"/>
      <point x="530" y="236" type="line" smooth="yes"/>
      <point x="530" y="116"/>
      <point x="402" y="-9"/>
      <point x="290" y="-9" type="qcurve" smooth="yes"/>
      <point x="176" y="-9"/>
    </contour>
    <contour>
      <point x="404" y="237" type="qcurve" smooth="yes"/>
      <point x="404" y="297" type="line" smooth="yes"/>
      <point x="404" y="365"/>
      <point x="345" y="429"/>
      <point x="290" y="429" type="qcurve" smooth="yes"/>
      <point x="173" y="429"/>
      <point x="173" y="297" type="qcurve" smooth="yes"/>
      <point x="173" y="237" type="line" smooth="yes"/>
      <point x="173" y="105"/>
      <point x="290" y="104" type="qcurve" smooth="yes"/>
      <point x="404" y="105"/>
    </contour>
  </outline>
</glyph>
<glyph name="r" format="2">
  <advance width="403"/>
  <unicode hex="0072"/>
  <outline>
    <contour>
      <point x="55" y="532" type="line"/>
      <point x="179" y="532" type="line"/>
      <point x="179" y="472" type="line"/>
      <point x="206" y="508"/>
      <point x="287" y="544"/>
      <point x="335" y="544" type="qcurve" smooth="yes"/>
      <point x="365" y="544"/>
      <point x="385" y="540" type="qcurve"/>
      <point x="385" y="419" type="line"/>
      <point x="350" y="432"/>
      <point x="309" y="432" type="qcurve" smooth="yes"/>
      <point x="249" y="432"/>
      <point x="182" y="361"/>
      <point x="182" y="295" type="qcurve" smooth="yes"/>
      <point x="182" y="0" type="line"/>
      <point x="55" y="0" type="line"/>
    </contour>
  </outline>
</glyph>
<glyph name="x" format="2">
  <advance width="526"/>
  <unicode hex="0078"/>
  <outline>
    <contour>
      <point x="379" y="0" type="line"/>
      <point x="259" y="178" type="line"/>
      <point x="148" y="0" type="line"/>
      <point x="9" y="0" type="line"/>
      <point x="194" y="274" type="line"/>
      <point x="19" y="532" type="line"/>
      <point x="159" y="532" type="line"/>
      <point x="267" y="371" type="line"/>
      <point x="369" y="532" type="line"/>
      <point x="507" y="532" type="line"/>
      <point x="330" y="278" type="line"/>
      <point x="517" y="0" type="line"/>
    </contour>
  </outline>
</glyph>
<glyph name="braceleft" format="2">
  <advance width="409"/>
  <unicode hex="007B"/>
  <outline>
    <contour>
      <point x="139" y="45" type="qcurve" smooth="yes"/>
      <point x="139" y="202" type="line" smooth="yes"/>
      <point x="139" y="246"/>
      <point x="98" y="284"/>
      <point x="47" y="284" type="qcurve"/>
      <point x="47" y="392" type="line"/>
      <point x="98" y="392"/>
      <point x="139" y="430"/>
      <point x="139" y="474" type="qcurve" smooth="yes"/>
      <point x="139" y="628" type="line" smooth="yes"/>
      <point x="139" y="758"/>
      <point x="283" y="758" type="qcurve" smooth="yes"/>
      <point x="364" y="758" type="line"/>
      <point x="364" y="655" type="line"/>
      <point x="323" y="655" type="line" smooth="yes"/>
      <point x="288" y="655"/>
      <point x="259" y="633"/>
      <point x="259" y="605" type="qcurve" smooth="yes"/>
      <point x="259" y="468" type="line" smooth="yes"/>
      <point x="259" y="411"/>
      <point x="226" y="352"/>
      <point x="187" y="338" type="qcurve"/>
      <point x="226" y="324"/>
      <point x="259" y="265"/>
      <point x="259" y="208" type="qcurve" smooth="yes"/>
      <point x="259" y="67" type="line" smooth="yes"/>
      <point x="259" y="39"/>
      <point x="288" y="16"/>
      <point x="323" y="16" type="qcurve" smooth="yes"/>
      <point x="364" y="16" type="line"/>
      <point x="364" y="-86" type="line"/>
      <point x="283" y="-86" type="line" smooth="yes"/>
      <point x="139" y="-86"/>
    </contour>
  </outline>
</glyph>
<glyph name="braceright" format="2">
  <advance width="409"/>
  <unicode hex="007D"/>
  <outline>
    <contour>
      <point x="47" y="16" type="line"/>
      <point x="87" y="16" type="line" smooth="yes"/>
      <point x="122" y="16"/>
      <point x="152" y="40"/>
      <point x="152" y="67" type="qcurve" smooth="yes"/>
      <point x="152" y="208" type="line" smooth="yes"/>
      <point x="152" y="265"/>
      <point x="184" y="324"/>
      <point x="223" y="338" type="qcurve"/>
      <point x="184" y="352"/>
      <point x="152" y="411"/>
      <point x="152" y="468" type="qcurve" smooth="yes"/>
      <point x="152" y="605" type="line" smooth="yes"/>
      <point x="152" y="633"/>
      <point x="123" y="655"/>
      <point x="87" y="655" type="qcurve" smooth="yes"/>
      <point x="47" y="655" type="line"/>
      <point x="47" y="758" type="line"/>
      <point x="128" y="758" type="line" smooth="yes"/>
      <point x="270" y="758"/>
      <point x="270" y="628" type="qcurve" smooth="yes"/>
      <point x="270" y="474" type="line" smooth="yes"/>
      <point x="270" y="431"/>
      <point x="311" y="392"/>
      <point x="364" y="392" type="qcurve"/>
      <point x="364" y="284" type="line"/>
      <point x="312" y="284"/>
      <point x="270" y="245"/>
      <point x="270" y="202" type="qcurve" smooth="yes"/>
      <point x="270" y="45" type="line" smooth="yes"/>
      <point x="270" y="-86"/>
      <point x="128" y="-86" type="qcurve" smooth="yes"/>
      <point x="47" y="-86" type="line"/>
    </contour>
  </outline>
</glyph>
<glyph name="asciitilde" format="2">
  <advance width="541"/>
  <unicode hex="007E"/>
  <outline>
    <contour>
      <point x="40" y="251" type="line"/>
      <point x="65" y="305"/>
      <point x="140" y="362"/>
      <point x="186" y="362" type="qcurve" smooth="yes"/>
      <point x="213" y="362"/>
      <point x="256" y="346"/>
      <point x="285" y="330" type="qcurve" smooth="yes"/>
      <point x="308" y="318"/>
      <point x="336" y="305"/>
      <point x="351" y="305" type="qcurve" smooth="yes"/>
      <point x="374" y="305"/>
      <point x="406" y="332"/>
      <point x="421" y="362" type="qcurve"/>
      <point x="503" y="312" type="line"/>
      <point x="479" y="258"/>
      <point x="402" y="200"/>
      <point x="355" y="200" type="qcurve" smooth="yes"/>
      <point x="328" y="200"/>
      <point x="285" y="217"/>
      <point x="257" y="233" type="qcurve" smooth="yes"/>
      <point x="232" y="246"/>
      <point x="206" y="258"/>
      <point x="191" y="258" type="qcurve" smooth="yes"/>
      <point x="169" y="258"/>
      <point x="138" y="231"/>
      <point x="122" y="201" type="qcurve"/>
    </contour>
  </outline>
</glyph>
<glyph name="cent" format="2">
  <advance width="572"/>
  <unicode hex="00A2"/>
  <outline>
    <contour>
      <point x="402" y="339" type="line"/>
      <point x="402" y="343" type="line" smooth="yes"/>
      <point x="402" y="383"/>
      <point x="344" y="429"/>
      <point x="293" y="429" type="qcurve" smooth="yes"/>
      <point x="234" y="429"/>
      <point x="173" y="366"/>
      <point x="173" y="297" type="qcurve" smooth="yes"/>
      <point x="173" y="237" type="line" smooth="yes"/>
      <point x="173" y="167"/>
      <point x="234" y="104"/>
      <point x="296" y="104" type="qcurve" smooth="yes"/>
      <point x="345" y="104"/>
      <point x="401" y="148"/>
      <point x="401" y="186" type="qcurve" smooth="yes"/>
      <point x="401" y="190" type="line"/>
      <point x="525" y="190" type="line"/>
      <point x="525" y="186" type="line" smooth="yes"/>
      <point x="525" y="103"/>
      <point x="422" y="2"/>
      <point x="330" y="-7" type="qcurve"/>
      <point x="330" y="-102" type="line"/>
      <point x="256" y="-102" type="line"/>
      <point x="256" y="-8" type="line"/>
      <point x="157" y="1"/>
      <point x="47" y="125"/>
      <point x="47" y="236" type="qcurve" smooth="yes"/>
      <point x="47" y="299" type="line" smooth="yes"/>
      <point x="47" y="409"/>
      <point x="158" y="531"/>
      <point x="256" y="541" type="qcurve"/>
      <point x="256" y="633" type="line"/>
      <point x="330" y="633" type="line"/>
      <point x="330" y="540" type="line"/>
      <point x="423" y="531"/>
      <point x="526" y="429"/>
      <point x="526" y="345" type="qcurve" smooth="yes"/>
      <point x="526" y="339" type="line"/>
    </contour>
  </outline>
</glyph>
<glyph name="sterling" format="2">
  <advance width="530"/>
  <unicode hex="00A3"/>
  <outline>
    <contour>
      <point x="217" y="134"/>
      <point x="199" y="116" type="qcurve"/>
      <point x="508" y="116" type="line"/>
      <point x="508" y="0" type="line"/>
      <point x="49" y="0" type="line"/>
      <point x="49" y="111" type="line"/>
      <point x="77" y="122"/>
      <point x="100" y="165"/>
      <point x="100" y="206" type="qcurve" smooth="yes"/>
      <point x="100" y="283" type="line"/>
      <point x="29" y="283" type="line"/>
      <point x="29" y="399" type="line"/>
      <point x="100" y="399" type="line"/>
      <point x="100" y="514" type="line" smooth="yes"/>
      <point x="100" y="610"/>
      <point x="209" y="717"/>
      <point x="308" y="717" type="qcurve" smooth="yes"/>
      <point x="401" y="717"/>
      <point x="508" y="625"/>
      <point x="508" y="542" type="qcurve"/>
      <point x="383" y="542" type="line"/>
      <point x="383" y="572"/>
      <point x="346" y="603"/>
      <point x="310" y="603" type="qcurve" smooth="yes"/>
      <point x="273" y="603"/>
      <point x="234" y="565"/>
      <point x="234" y="529" type="qcurve" smooth="yes"/>
      <point x="234" y="399" type="line"/>
      <point x="400" y="399" type="line"/>
      <point x="400" y="283" type="line"/>
      <point x="234" y="283" type="line"/>
      <point x="234" y="219" type="line" smooth="yes"/>
      <point x="234" y="184"/>
    </contour>
  </outline>
</glyph>
<glyph name="copyright" format="2">
  <advance width="802"/>
  <unicode hex="00A9"/>
  <outline>
    <contour>
      <point x="142" y="81"/>
      <point x="56" y="244"/>
      <point x="56" y="350" type="qcurve" smooth="yes"/>
      <point x="56" y="458"/>
      <point x="142" y="621"/>
      <point x="301" y="710"/>
      <point x="407" y="710" type="qcurve" smooth="yes"/>
      <point x="512" y="710"/>
      <point x="671" y="620"/>
      <point x="757" y="457"/>
      <point x="757" y="350" type="qcurve" smooth="yes"/>
      <point x="757" y="244"/>
      <point x="671" y="81"/>
      <point x="512" y="-9"/>
      <point x="407" y="-9" type="qcurve" smooth="yes"/>
      <point x="301" y="-9"/>
    </contour>
    <contour>
      <point x="674" y="220"/>
      <point x="674" y="350" type="qcurve" smooth="yes"/>
      <point x="674" y="480"/>
      <point x="531" y="632"/>
      <point x="407" y="632" type="qcurve" smooth="yes"/>
      <point x="282" y="632"/>
      <point x="139" y="480"/>
      <point x="139" y="350" type="qcurve" smooth="yes"/>
      <point x="139" y="220"/>
      <point x="282" y="70"/>
      <point x="407" y="70" type="qcurve" smooth="yes"/>
      <point x="531" y="70"/>
    </contour>
    <contour>
      <point x="238" y="242"/>
      <point x="238" y="328" type="qcurve" smooth="yes"/>
      <point x="238" y="373" type="line" smooth="yes"/>
      <point x="238" y="459"/>
      <point x="329" y="549"/>
      <point x="407" y="549" type="qcurve" smooth="yes"/>
      <point x="484" y="549"/>
      <point x="572" y="473"/>
      <point x="572" y="408" type="qcurve" smooth="yes"/>
      <point x="572" y="402" type="line"/>
      <point x="483" y="402" type="line"/>
      <point x="483" y="406" type="line" smooth="yes"/>
      <point x="483" y="435"/>
      <point x="443" y="467"/>
      <point x="410" y="467" type="qcurve" smooth="yes"/>
      <point x="370" y="467"/>
      <point x="329" y="422"/>
      <point x="329" y="372" type="qcurve" smooth="yes"/>
      <point x="329" y="328" type="line" smooth="yes"/>
      <point x="329" y="278"/>
      <point x="371" y="232"/>
      <point x="412" y="232" type="qcurve" smooth="yes"/>
      <point x="445" y="232"/>
      <point x="483" y="264"/>
      <point x="483" y="292" type="qcurve" smooth="yes"/>
      <point x="483" y="295" type="line"/>
      <point x="572" y="295" type="line"/>
      <point x="572" y="292" type="line" smooth="yes"/>
      <point x="572" y="226"/>
      <point x="483" y="152"/>
      <point x="407" y="152" type="qcurve" smooth="yes"/>
      <point x="329" y="152"/>
    </contour>
  </outline>
</glyph>
<glyph name="uni00B3" format="2">
  <advance width="393"/>
  <unicode hex="00B3"/>
  <outline>
    <contour>
      <point x="44" y="496"/>
      <point x="44" y="556" type="qcurve" smooth="yes"/>
      <point x="44" y="564" type="line"/>
      <point x="139" y="564" type="line"/>
      <point x="139" y="558" type="line" smooth="yes"/>
      <point x="139" y="519"/>
      <point x="194" y="519" type="qcurve" smooth="yes"/>
      <point x="220" y="519"/>
      <point x="246" y="542"/>
      <point x="246" y="562" type="qcurve" smooth="yes"/>
      <point x="246" y="569" type="line" smooth="yes"/>
      <point x="246" y="616"/>
      <point x="184" y="616" type="qcurve" smooth="yes"/>
      <point x="160" y="616" type="line"/>
      <point x="160" y="703" type="line"/>
      <point x="183" y="703" type="line" smooth="yes"/>
      <point x="238" y="703"/>
      <point x="239" y="743" type="qcurve" smooth="yes"/>
      <point x="239" y="751" type="line" smooth="yes"/>
      <point x="239" y="791"/>
      <point x="190" y="791" type="qcurve" smooth="yes"/>
      <point x="140" y="791"/>
      <point x="140" y="753" type="qcurve" smooth="yes"/>
      <point x="140" y="745" type="line"/>
      <point x="46" y="745" type="line"/>
      <point x="46" y="752" type="line" smooth="yes"/>
      <point x="46" y="813"/>
      <point x="123" y="877"/>
      <point x="195" y="877" type="qcurve" smooth="yes"/>
      <point x="263" y="877"/>
      <point x="340" y="813"/>
      <point x="340" y="759" type="qcurve" smooth="yes"/>
      <point x="340" y="752" type="line" smooth="yes"/>
      <point x="340" y="725"/>
      <point x="310" y="681"/>
      <point x="282" y="669" type="qcurve"/>
      <point x="314" y="661"/>
      <point x="348" y="608"/>
      <point x="348" y="571" type="qcurve" smooth="yes"/>
      <point x="348" y="563" type="line" smooth="yes"/>
      <point x="348" y="504"/>
      <point x="264" y="433"/>
      <point x="196" y="433" type="qcurve" smooth="yes"/>
      <point x="121" y="433"/>
    </contour>
  </outline>
</glyph>
<glyph name="uni00B5" format="2">
  <advance width="585"/>
  <unicode hex="00B5"/>
  <outline>
    <contour>
      <point x="55" y="532" type="line"/>
      <point x="182" y="532" type="line"/>
      <point x="182" y="226" type="line" smooth="yes"/>
      <point x="182" y="166"/>
      <point x="237" y="106"/>
      <point x="288" y="106" type="qcurve" smooth="yes"/>
      <point x="341" y="106"/>
      <point x="403" y="170"/>
      <point x="403" y="231" type="qcurve" smooth="yes"/>
      <point x="403" y="532" type="line"/>
      <point x="530" y="532" type="line"/>
      <point x="530" y="0" type="line"/>
      <point x="407" y="0" type="line"/>
      <point x="407" y="57" type="line"/>
      <point x="388" y="27"/>
      <point x="314" y="-6"/>
      <point x="271" y="-6" type="qcurve" smooth="yes"/>
      <point x="220" y="-6"/>
      <point x="182" y="14" type="qcurve"/>
      <point x="182" y="-160" type="line"/>
      <point x="55" y="-160" type="line"/>
    </contour>
  </outline>
</glyph>
<glyph name="uni00B9" format="2">
  <advance width="291"/>
  <unicode hex="00B9"/>
  <outline>
    <contour>
      <point x="123" y="760" type="line"/>
      <point x="32" y="710" type="line"/>
      <point x="32" y="818" type="line"/>
      <point x="123" y="869" type="line"/>
      <point x="228" y="869" type="line"/>
      <point x="228" y="440" type="line"/>
      <point x="123" y="440" type="line"/>
    </contour>
  </outline>
</glyph>
<glyph name="ordmasculine" format="2">
  <advance width="387"/>
  <unicode hex="00BA"/>
  <outline>
    <contour>
      <point x="39" y="513"/>
      <point x="39" y="587" type="qcurve" smooth="yes"/>
      <point x="39" y="620" type="line" smooth="yes"/>
      <point x="39" y="691"/>
      <point x="121" y="766"/>
      <point x="194" y="766" type="qcurve" smooth="yes"/>
      <point x="267" y="766"/>
      <point x="348" y="690"/>
      <point x="348" y="620" type="qcurve" smooth="yes"/>
      <point x="348" y="587" type="line" smooth="yes"/>
      <point x="348" y="514"/>
      <point x="265" y="436"/>
      <point x="194" y="436" type="qcurve" smooth="yes"/>
      <point x="120" y="436"/>
    </contour>
    <contour>
      <point x="257" y="554"/>
      <point x="257" y="588" type="qcurve" smooth="yes"/>
      <point x="257" y="620" type="line" smooth="yes"/>
      <point x="257" y="652"/>
      <point x="223" y="684"/>
      <point x="194" y="684" type="qcurve" smooth="yes"/>
      <point x="164" y="684"/>
      <point x="130" y="651"/>
      <point x="130" y="620" type="qcurve" smooth="yes"/>
      <point x="130" y="588" type="line" smooth="yes"/>
      <point x="130" y="554"/>
      <point x="164" y="518"/>
      <point x="194" y="518" type="qcurve" smooth="yes"/>
      <point x="223" y="518"/>
    </contour>
  </outline>
</glyph>
<glyph name="onehalf" format="2">
  <advance width="903"/>
  <unicode hex="00BD"/>
  <outline>
    <contour>
      <point x="580" y="712" type="line"/>
      <point x="684" y="712" type="line"/>
      <point x="229" y="0" type="line"/>
      <point x="126" y="0" type="line"/>
    </contour>
    <contour>
      <point x="123" y="597" type="line"/>
      <point x="32" y="547" type="line"/>
      <point x="32" y="655" type="line"/>
      <point x="123" y="707" type="line"/>
      <point x="228" y="707" type="line"/>
      <point x="228" y="278" type="line"/>
      <point x="123" y="278" type="line"/>
    </contour>
    <contour>
      <point x="555" y="82" type="line"/>
      <point x="713" y="241" type="line" smooth="yes"/>
      <point x="732" y="258"/>
      <point x="749" y="286"/>
      <point x="749" y="300" type="qcurve" smooth="yes"/>
      <point x="749" y="306" type="line" smooth="yes"/>
      <point x="749" y="348"/>
      <point x="700" y="348" type="qcurve" smooth="yes"/>
      <point x="676" y="348"/>
      <point x="652" y="327"/>
      <point x="652" y="307" type="qcurve" smooth="yes"/>
      <point x="652" y="301" type="line"/>
      <point x="551" y="301" type="line"/>
      <point x="551" y="310" type="line" smooth="yes"/>
      <point x="551" y="368"/>
      <point x="631" y="436"/>
      <point x="703" y="436" type="qcurve" smooth="yes"/>
      <point x="774" y="436"/>
      <point x="856" y="367"/>
      <point x="856" y="311" type="qcurve" smooth="yes"/>
      <point x="856" y="303" type="line" smooth="yes"/>
      <point x="856" y="266"/>
      <point x="824" y="211"/>
      <point x="785" y="176" type="qcurve" smooth="yes"/>
      <point x="703" y="91" type="line"/>
      <point x="856" y="91" type="line"/>
      <point x="856" y="0" type="line"/>
      <point x="555" y="0" type="line"/>
    </contour>
  </outline>
</glyph>
<glyph name="threequarters" format="2">
  <advance width="974"/>
  <unicode hex="00BE"/>
  <outline>
    <contour>
      <point x="264" y="270"/>
      <point x="196" y="270" type="qcurve" smooth="yes"/>
      <point x="121" y="270"/>
      <point x="44" y="333"/>
      <point x="44" y="393" type="qcurve" smooth="yes"/>
      <point x="44" y="401" type="line"/>
      <point x="139" y="401" type="line"/>
      <point x="139" y="395" type="line" smooth="yes"/>
      <point x="139" y="356"/>
      <point x="194" y="356" type="qcurve" smooth="yes"/>
      <point x="220" y="356"/>
      <point x="246" y="379"/>
      <point x="246" y="399" type="qcurve" smooth="yes"/>
      <point x="246" y="407" type="line" smooth="yes"/>
      <point x="246" y="454"/>
      <point x="184" y="454" type="qcurve" smooth="yes"/>
      <point x="160" y="454" type="line"/>
      <point x="160" y="541" type="line"/>
      <point x="183" y="541" type="line" smooth="yes"/>
      <point x="238" y="541"/>
      <point x="239" y="581" type="qcurve" smooth="yes"/>
      <point x="239" y="588" type="line" smooth="yes"/>
      <point x="239" y="628"/>
      <point x="190" y="628" type="qcurve" smooth="yes"/>
      <point x="140" y="628"/>
      <point x="140" y="590" type="qcurve" smooth="yes"/>
      <point x="140" y="583" type="line"/>
      <point x="46" y="583" type="line"/>
      <point x="46" y="589" type="line" smooth="yes"/>
      <point x="46" y="650"/>
      <point x="123" y="714"/>
      <point x="195" y="714" type="qcurve" smooth="yes"/>
      <point x="263" y="714"/>
      <point x="340" y="650"/>
      <point x="340" y="596" type="qcurve" smooth="yes"/>
      <point x="340" y="589" type="line" smooth="yes"/>
      <point x="340" y="562"/>
      <point x="310" y="517"/>
      <point x="282" y="506" type="qcurve"/>
      <point x="314" y="498"/>
      <point x="348" y="445"/>
      <point x="348" y="409" type="qcurve" smooth="yes"/>
      <point x="348" y="400" type="line" smooth="yes"/>
      <point x="348" y="341"/>
    </contour>
    <contour>
      <point x="779" y="712" type="line"/>
      <point x="325" y="0" type="line"/>
      <point x="221" y="0" type="line"/>
      <point x="675" y="712" type="line"/>
    </contour>
    <contour>
      <point x="945" y="58" type="line"/>
      <point x="914" y="58" type="line"/>
      <point x="914" y="0" type="line"/>
      <point x="809" y="0" type="line"/>
      <point x="809" y="58" type="line"/>
      <point x="609" y="58" type="line"/>
      <point x="609" y="150" type="line"/>
      <point x="746" y="429" type="line"/>
      <point x="854" y="429" type="line"/>
      <point x="717" y="150" type="line"/>
      <point x="809" y="150" type="line"/>
      <point x="809" y="240" type="line"/>
      <point x="914" y="240" type="line"/>
      <point x="914" y="150" type="line"/>
      <point x="945" y="150" type="line"/>
    </contour>
  </outline>
</glyph>
<glyph name="questiondown" format="2">
  <advance width="512"/>
  <unicode hex="00BF"/>
  <outline>
    <contour>
      <point x="198" y="532" type="line"/>
      <point x="332" y="532" type="line"/>
      <point x="332" y="401" type="line"/>
      <point x="198" y="401" type="line"/>
    </contour>
    <contour>
      <point x="35" y="-73"/>
      <point x="35" y="12" type="qcurve" smooth="yes"/>
      <point x="35" y="54"/>
      <point x="66" y="129"/>
      <point x="104" y="165" type="qcurve" smooth="yes"/>
      <point x="156" y="213" type="line" smooth="yes"/>
      <point x="184" y="239"/>
      <point x="202" y="281"/>
      <point x="202" y="315" type="qcurve" smooth="yes"/>
      <point x="202" y="333" type="line"/>
      <point x="329" y="333" type="line"/>
      <point x="329" y="300" type="line" smooth="yes"/>
      <point x="329" y="249"/>
      <point x="304" y="190"/>
      <point x="266" y="156" type="qcurve" smooth="yes"/>
      <point x="217" y="110" type="line" smooth="yes"/>
      <point x="188" y="84"/>
      <point x="166" y="44"/>
      <point x="166" y="20" type="qcurve" smooth="yes"/>
      <point x="166" y="-17"/>
      <point x="216" y="-55"/>
      <point x="264" y="-55" type="qcurve" smooth="yes"/>
      <point x="313" y="-55"/>
      <point x="359" y="-14"/>
      <point x="360" y="27" type="qcurve"/>
      <point x="484" y="27" type="line"/>
      <point x="480" y="-170"/>
      <point x="262" y="-170" type="qcurve" smooth="yes"/>
      <point x="156" y="-170"/>
    </contour>
  </outline>
</glyph>
<glyph name="Aring" format="2">
  <advance width="697"/>
  <unicode hex="00C5"/>
  <outline>
    <contour>
      <point x="499" y="137" type="line"/>
      <point x="199" y="137" type="line"/>
      <point x="147" y="0" type="line"/>
      <point x="4" y="0" type="line"/>
      <point x="294" y="706" type="line"/>
      <point x="270" y="720"/>
      <point x="244" y="767"/>
      <point x="244" y="797" type="qcurve" smooth="yes"/>
      <point x="244" y="843"/>
      <point x="304" y="903"/>
      <point x="349" y="903" type="qcurve" smooth="yes"/>
      <point x="394" y="903"/>
      <point x="455" y="843"/>
      <point x="455" y="797" type="qcurve" smooth="yes"/>
      <point x="455" y="767"/>
      <point x="427" y="719"/>
      <point x="403" y="706" type="qcurve"/>
      <point x="693" y="0" type="line"/>
      <point x="550" y="0" type="line"/>
    </contour>
    <contour>
      <point x="302" y="818"/>
      <point x="302" y="797" type="qcurve" smooth="yes"/>
      <point x="302" y="777"/>
      <point x="330" y="748"/>
      <point x="349" y="748" type="qcurve" smooth="yes"/>
      <point x="369" y="748"/>
      <point x="397" y="776"/>
      <point x="397" y="797" type="qcurve" smooth="yes"/>
      <point x="397" y="819"/>
      <point x="370" y="847"/>
      <point x="349" y="847" type="qcurve" smooth="yes"/>
      <point x="329" y="847"/>
    </contour>
    <contour>
      <point x="457" y="249" type="line"/>
      <point x="348" y="537" type="line"/>
      <point x="241" y="249" type="line"/>
    </contour>
  </outline>
</glyph>
<glyph name="AE" format="2">
  <advance width="1018"/>
  <unicode hex="00C6"/>
  <outline>
    <contour>
      <point x="617" y="590" type="line"/>
      <point x="617" y="415" type="line"/>
      <point x="931" y="415" type="line"/>
      <point x="931" y="298" type="line"/>
      <point x="617" y="298" type="line"/>
      <point x="617" y="117" type="line"/>
      <point x="983" y="117" type="line"/>
      <point x="983" y="0" type="line"/>
      <point x="482" y="0" type="line"/>
      <point x="482" y="144" type="line"/>
      <point x="233" y="144" type="line"/>
      <point x="154" y="0" type="line"/>
      <point x="4" y="0" type="line"/>
      <point x="413" y="707" type="line"/>
      <point x="983" y="707" type="line"/>
      <point x="983" y="590" type="line"/>
    </contour>
    <contour>
      <point x="482" y="256" type="line"/>
      <point x="482" y="594" type="line"/>
      <point x="295" y="256" type="line"/>
    </contour>
  </outline>
</glyph>
<glyph name="Ccedilla" format="2">
  <advance width="689"/>
  <unicode hex="00C7"/>
  <outline>
    <contour>
      <point x="509" y="470" type="line"/>
      <point x="509" y="474" type="line" smooth="yes"/>
      <point x="509" y="533"/>
      <point x="429" y="602"/>
      <point x="358" y="602" type="qcurve" smooth="yes"/>
      <point x="274" y="602"/>
      <point x="191" y="504"/>
      <point x="191" y="402" type="qcurve" smooth="yes"/>
      <point x="191" y="301" type="line" smooth="yes"/>
      <point x="191" y="204"/>
      <point x="275" y="110"/>
      <point x="359" y="110" type="qcurve" smooth="yes"/>
      <point x="430" y="110"/>
      <point x="509" y="176"/>
      <point x="509" y="234" type="qcurve" smooth="yes"/>
      <point x="509" y="240" type="line"/>
      <point x="642" y="240" type="line"/>
      <point x="642" y="234" type="line" smooth="yes"/>
      <point x="642" y="134"/>
      <point x="526" y="9"/>
      <point x="425" y="-6" type="qcurve"/>
      <point x="362" y="-160" type="line"/>
      <point x="241" y="-160" type="line"/>
      <point x="317" y="-9" type="line"/>
      <point x="193" y="1"/>
      <point x="56" y="156"/>
      <point x="56" y="299" type="qcurve" smooth="yes"/>
      <point x="56" y="410" type="line" smooth="yes"/>
      <point x="56" y="565"/>
      <point x="216" y="720"/>
      <point x="358" y="720" type="qcurve" smooth="yes"/>
      <point x="488" y="720"/>
      <point x="643" y="592"/>
      <point x="643" y="478" type="qcurve" smooth="yes"/>
      <point x="643" y="470" type="line"/>
    </contour>
  </outline>
</glyph>
<glyph name="Eth" format="2">
  <advance width="710"/>
  <unicode hex="00D0"/>
  <outline>
    <contour>
      <point x="665" y="555"/>
      <point x="665" y="397" type="qcurve" smooth="yes"/>
      <point x="665" y="310" type="line" smooth="yes"/>
      <point x="665" y="152"/>
      <point x="507" y="0"/>
      <point x="364" y="0" type="qcurve" smooth="yes"/>
      <point x="93" y="0" type="line"/>
      <point x="93" y="301" type="line"/>
      <point x="28" y="301" type="line"/>
      <point x="28" y="419" type="line"/>
      <point x="93" y="419" type="line"/>
      <point x="93" y="707" type="line"/>
      <point x="369" y="707" type="line" smooth="yes"/>
      <point x="510" y="707"/>
    </contour>
    <contour>
      <point x="530" y="390" type="line" smooth="yes"/>
      <point x="530" y="494"/>
      <point x="451" y="590"/>
      <point x="368" y="590" type="qcurve" smooth="yes"/>
      <point x="227" y="590" type="line"/>
      <point x="227" y="419" type="line"/>
      <point x="388" y="419" type="line"/>
      <point x="388" y="301" type="line"/>
      <point x="227" y="301" type="line"/>
      <point x="227" y="117" type="line"/>
      <point x="368" y="117" type="line" smooth="yes"/>
      <point x="451" y="117"/>
      <point x="530" y="210"/>
      <point x="530" y="310" type="qcurve" smooth="yes"/>
    </contour>
  </outline>
</glyph>
<glyph name="Oslash" format="2">
  <advance width="689"/>
  <unicode hex="00D8"/>
  <outline>
    <contour>
      <point x="644" y="410" type="qcurve" smooth="yes"/>
      <point x="644" y="299" type="line" smooth="yes"/>
      <point x="644" y="145"/>
      <point x="485" y="-11"/>
      <point x="348" y="-11" type="qcurve" smooth="yes"/>
      <point x="245" y="-11"/>
      <point x="176" y="33" type="qcurve"/>
      <point x="140" y="-20" type="line"/>
      <point x="56" y="-20" type="line"/>
      <point x="123" y="80" type="line"/>
      <point x="57" y="160"/>
      <point x="57" y="299" type="qcurve" smooth="yes"/>
      <point x="57" y="410" type="line" smooth="yes"/>
      <point x="57" y="565"/>
      <point x="214" y="720"/>
      <point x="352" y="720" type="qcurve" smooth="yes"/>
      <point x="451" y="720"/>
      <point x="520" y="679" type="qcurve"/>
      <point x="556" y="732" type="line"/>
      <point x="638" y="732" type="line"/>
      <point x="573" y="635" type="line"/>
      <point x="644" y="555"/>
    </contour>
    <contour>
      <point x="206" y="205" type="qcurve"/>
      <point x="451" y="572" type="line"/>
      <point x="414" y="602"/>
      <point x="352" y="602" type="qcurve" smooth="yes"/>
      <point x="271" y="602"/>
      <point x="193" y="504"/>
      <point x="193" y="402" type="qcurve" smooth="yes"/>
      <point x="193" y="301" type="line" smooth="yes"/>
      <point x="193" y="244"/>
    </contour>
    <contour>
      <point x="510" y="402" type="line" smooth="yes"/>
      <point x="510" y="467"/>
      <point x="493" y="513" type="qcurve"/>
      <point x="248" y="141" type="line"/>
      <point x="286" y="109"/>
      <point x="352" y="110" type="qcurve" smooth="yes"/>
      <point x="510" y="110"/>
      <point x="510" y="301" type="qcurve" smooth="yes"/>
    </contour>
  </outline>
</glyph>
<glyph name="ccedilla" format="2">
  <advance width="572"/>
  <unicode hex="00E7"/>
  <outline>
    <contour>
      <point x="402" y="339" type="line"/>
      <point x="402" y="343" type="line" smooth="yes"/>
      <point x="402" y="383"/>
      <point x="344" y="429"/>
      <point x="293" y="429" type="qcurve" smooth="yes"/>
      <point x="234" y="429"/>
      <point x="173" y="366"/>
      <point x="173" y="297" type="qcurve" smooth="yes"/>
      <point x="173" y="237" type="line" smooth="yes"/>
      <point x="173" y="167"/>
      <point x="234" y="104"/>
      <point x="296" y="104" type="qcurve" smooth="yes"/>
      <point x="345" y="104"/>
      <point x="401" y="148"/>
      <point x="401" y="186" type="qcurve" smooth="yes"/>
      <point x="401" y="190" type="line"/>
      <point x="525" y="190" type="line"/>
      <point x="525" y="186" type="line" smooth="yes"/>
      <point x="525" y="111"/>
      <point x="440" y="13"/>
      <point x="364" y="-2" type="qcurve"/>
      <point x="299" y="-160" type="line"/>
      <point x="177" y="-160" type="line"/>
      <point x="255" y="-7" type="line"/>
      <point x="157" y="1"/>
      <point x="47" y="125"/>
      <point x="47" y="236" type="qcurve" smooth="yes"/>
      <point x="47" y="299" type="line" smooth="yes"/>
      <point x="47" y="418"/>
      <point x="176" y="542"/>
      <point x="290" y="542" type="qcurve" smooth="yes"/>
      <point x="402" y="542"/>
      <point x="526" y="437"/>
      <point x="526" y="345" type="qcurve" smooth="yes"/>
      <point x="526" y="339" type="line"/>
    </contour>
  </outline>
</glyph>
<glyph name="eth" format="2">
  <advance width="575"/>
  <unicode hex="00F0"/>
  <outline>
    <contour>
      <point x="529" y="330"/>
      <point x="529" y="256" type="qcurve" smooth="yes"/>
      <point x="529" y="230" type="line" smooth="yes"/>
      <point x="529" y="117"/>
      <point x="399" y="-11"/>
      <point x="288" y="-11" type="qcurve" smooth="yes"/>
      <point x="174" y="-11"/>
      <point x="47" y="114"/>
      <point x="47" y="223" type="qcurve" smooth="yes"/>
      <point x="47" y="251" type="line" smooth="yes"/>
      <point x="47" y="352"/>
      <point x="157" y="476"/>
      <point x="249" y="476" type="qcurve" smooth="yes"/>
      <point x="300" y="476"/>
      <point x="334" y="461" type="qcurve"/>
      <point x="260" y="552" type="line"/>
      <point x="135" y="517" type="line"/>
      <point x="110" y="598" type="line"/>
      <point x="203" y="624" type="line"/>
      <point x="131" y="712" type="line"/>
      <point x="269" y="712" type="line"/>
      <point x="316" y="654" type="line"/>
      <point x="434" y="686" type="line"/>
      <point x="459" y="606" type="line"/>
      <point x="375" y="583" type="line"/>
      <point x="414" y="536" type="line" smooth="yes"/>
      <point x="474" y="460"/>
    </contour>
    <contour>
      <point x="411" y="252" type="line" smooth="yes"/>
      <point x="411" y="308"/>
      <point x="347" y="374"/>
      <point x="289" y="374" type="qcurve" smooth="yes"/>
      <point x="229" y="374"/>
      <point x="165" y="310"/>
      <point x="165" y="253" type="qcurve" smooth="yes"/>
      <point x="165" y="227" type="line" smooth="yes"/>
      <point x="165" y="167"/>
      <point x="228" y="99"/>
      <point x="289" y="99" type="qcurve" smooth="yes"/>
      <point x="348" y="99"/>
      <point x="411" y="167"/>
      <point x="411" y="227" type="qcurve" smooth="yes"/>
    </contour>
  </outline>
</glyph>
<glyph name="divide" format="2">
  <advance width="541"/>
  <unicode hex="00F7"/>
  <outline>
    <contour>
      <point x="203" y="425"/>
      <point x="203" y="454" type="qcurve" smooth="yes"/>
      <point x="203" y="483"/>
      <point x="242" y="522"/>
      <point x="270" y="522" type="qcurve" smooth="yes"/>
      <point x="299" y="522"/>
      <point x="339" y="482"/>
      <point x="339" y="454" type="qcurve" smooth="yes"/>
      <point x="339" y="425"/>
      <point x="299" y="385"/>
      <point x="270" y="385" type="qcurve" smooth="yes"/>
      <point x="242" y="385"/>
    </contour>
    <contour>
      <point x="49" y="341" type="line"/>
      <point x="493" y="341" type="line"/>
      <point x="493" y="224" type="line"/>
      <point x="49" y="224" type="line"/>
    </contour>
    <contour>
      <point x="203" y="84"/>
      <point x="203" y="113" type="qcurve" smooth="yes"/>
      <point x="203" y="142"/>
      <point x="242" y="181"/>
      <point x="270" y="181" type="qcurve" smooth="yes"/>
      <point x="299" y="181"/>
      <point x="339" y="141"/>
      <point x="339" y="113" type="qcurve" smooth="yes"/>
      <point x="339" y="84"/>
      <point x="300" y="44"/>
      <point x="270" y="44" type="qcurve" smooth="yes"/>
      <point x="242" y="44"/>
    </contour>
  </outline>
</glyph>
<glyph name="oslash" format="2">
  <advance width="576"/>
  <unicode hex="00F8"/>
  <outline>
    <contour>
      <point x="471" y="474" type="line"/>
      <point x="530" y="412"/>
      <point x="530" y="299" type="qcurve" smooth="yes"/>
      <point x="530" y="236" type="line" smooth="yes"/>
      <point x="530" y="116"/>
      <point x="402" y="-9"/>
      <point x="290" y="-9" type="qcurve" smooth="yes"/>
      <point x="210" y="-9"/>
      <point x="155" y="22" type="qcurve"/>
      <point x="119" y="-30" type="line"/>
      <point x="47" y="-30" type="line"/>
      <point x="108" y="57" type="line"/>
      <point x="48" y="119"/>
      <point x="47" y="236" type="qcurve" smooth="yes"/>
      <point x="47" y="299" type="line" smooth="yes"/>
      <point x="47" y="418"/>
      <point x="176" y="542"/>
      <point x="290" y="542" type="qcurve" smooth="yes"/>
      <point x="371" y="542"/>
      <point x="425" y="510" type="qcurve"/>
      <point x="460" y="559" type="line"/>
      <point x="530" y="559" type="line"/>
    </contour>
    <contour>
      <point x="184" y="167" type="qcurve"/>
      <point x="356" y="412" type="line"/>
      <point x="331" y="429"/>
      <point x="290" y="429" type="qcurve" smooth="yes"/>
      <point x="173" y="429"/>
      <point x="173" y="297" type="qcurve" smooth="yes"/>
      <point x="173" y="237" type="line" smooth="yes"/>
      <point x="173" y="196"/>
    </contour>
    <contour>
      <point x="394" y="364" type="qcurve"/>
      <point x="223" y="120" type="line"/>
      <point x="251" y="105"/>
      <point x="290" y="104" type="qcurve" smooth="yes"/>
      <point x="405" y="104"/>
      <point x="404" y="237" type="qcurve" smooth="yes"/>
      <point x="404" y="297" type="line" smooth="yes"/>
      <point x="404" y="335"/>
    </contour>
  </outline>
</glyph>
<glyph name="thorn" format="2">
  <advance width="584"/>
  <unicode hex="00FE"/>
  <outline>
    <contour>
      <point x="55" y="707" type="line"/>
      <point x="182" y="707" type="line"/>
      <point x="182" y="472" type="line"/>
      <point x="208" y="505"/>
      <point x="284" y="542"/>
      <point x="331" y="542" type="qcurve" smooth="yes"/>
      <point x="426" y="542"/>
      <point x="539" y="419"/>
      <point x="539" y="303" type="qcurve" smooth="yes"/>
      <point x="539" y="237" type="line" smooth="yes"/>
      <point x="539" y="160"/>
      <point x="484" y="48"/>
      <point x="390" y="-9"/>
      <point x="330" y="-9" type="qcurve" smooth="yes"/>
      <point x="235" y="-9"/>
      <point x="179" y="54" type="qcurve"/>
      <point x="179" y="-160" type="line"/>
      <point x="55" y="-160" type="line"/>
    </contour>
    <contour>
      <point x="412" y="173"/>
      <point x="412" y="242" type="qcurve" smooth="yes"/>
      <point x="412" y="297" type="line" smooth="yes"/>
      <point x="412" y="429"/>
      <point x="298" y="429" type="qcurve" smooth="yes"/>
      <point x="244" y="429"/>
      <point x="182" y="360"/>
      <point x="182" y="299" type="qcurve" smooth="yes"/>
      <point x="182" y="231" type="line" smooth="yes"/>
      <point x="182" y="173"/>
      <point x="246" y="104"/>
      <point x="300" y="104" type="qcurve" smooth="yes"/>
      <point x="354" y="104"/>
    </contour>
  </outline>
</glyph>
<glyph name="OE" format="2">
  <advance width="1038"/>
  <unicode hex="0152"/>
  <outline>
    <contour>
      <point x="643" y="590" type="line"/>
      <point x="643" y="415" type="line"/>
      <point x="950" y="415" type="line"/>
      <point x="950" y="298" type="line"/>
      <point x="643" y="298" type="line"/>
      <point x="643" y="117" type="line"/>
      <point x="1002" y="117" type="line"/>
      <point x="1002" y="0" type="line"/>
      <point x="514" y="0" type="line"/>
      <point x="514" y="36" type="line"/>
      <point x="441" y="-11"/>
      <point x="342" y="-11" type="qcurve" smooth="yes"/>
      <point x="210" y="-11"/>
      <point x="56" y="145"/>
      <point x="56" y="299" type="qcurve" smooth="yes"/>
      <point x="56" y="410" type="line" smooth="yes"/>
      <point x="56" y="564"/>
      <point x="212" y="720"/>
      <point x="345" y="720" type="qcurve" smooth="yes"/>
      <point x="442" y="720"/>
      <point x="514" y="674" type="qcurve"/>
      <point x="514" y="707" type="line"/>
      <point x="1002" y="707" type="line"/>
      <point x="1002" y="590" type="line"/>
    </contour>
    <contour>
      <point x="509" y="402" type="line" smooth="yes"/>
      <point x="509" y="602"/>
      <point x="351" y="602" type="qcurve" smooth="yes"/>
      <point x="270" y="602"/>
      <point x="191" y="504"/>
      <point x="191" y="402" type="qcurve" smooth="yes"/>
      <point x="191" y="301" type="line" smooth="yes"/>
      <point x="191" y="204"/>
      <point x="270" y="110"/>
      <point x="351" y="110" type="qcurve" smooth="yes"/>
      <point x="509" y="110"/>
      <point x="509" y="301" type="qcurve" smooth="yes"/>
    </contour>
  </outline>
</glyph>
<glyph name="florin" format="2">
  <advance width="480"/>
  <unicode hex="0192"/>
  <outline>
    <contour>
      <point x="9" y="-40" type="line"/>
      <point x="54" y="-40" type="line" smooth="yes"/>
      <point x="95" y="-40"/>
      <point x="132" y="-7"/>
      <point x="139" y="35" type="qcurve" smooth="yes"/>
      <point x="181" y="321" type="line"/>
      <point x="84" y="321" type="line"/>
      <point x="84" y="433" type="line"/>
      <point x="198" y="433" type="line"/>
      <point x="213" y="530" type="line" smooth="yes"/>
      <point x="227" y="623"/>
      <point x="316" y="707"/>
      <point x="403" y="707" type="qcurve" smooth="yes"/>
      <point x="471" y="707" type="line"/>
      <point x="471" y="590" type="line"/>
      <point x="421" y="590" type="line" smooth="yes"/>
      <point x="381" y="590"/>
      <point x="345" y="558"/>
      <point x="339" y="517" type="qcurve" smooth="yes"/>
      <point x="326" y="433" type="line"/>
      <point x="452" y="433" type="line"/>
      <point x="452" y="321" type="line"/>
      <point x="309" y="321" type="line"/>
      <point x="264" y="19" type="line" smooth="yes"/>
      <point x="250" y="-77"/>
      <point x="161" y="-160"/>
      <point x="71" y="-160" type="qcurve" smooth="yes"/>
      <point x="9" y="-160" type="line"/>
    </contour>
  </outline>
</glyph>
<glyph name="ring" format="2">
  <advance width="512"/>
  <unicode hex="02DA"/>
  <outline>
    <contour>
      <point x="148" y="651"/>
      <point x="148" y="696" type="qcurve" smooth="yes"/>
      <point x="148" y="742"/>
      <point x="209" y="803"/>
      <point x="254" y="803" type="qcurve" smooth="yes"/>
      <point x="299" y="803"/>
      <point x="359" y="742"/>
      <point x="359" y="696" type="qcurve" smooth="yes"/>
      <point x="359" y="651"/>
      <point x="299" y="591"/>
      <point x="254" y="591" type="qcurve" smooth="yes"/>
      <point x="209" y="591"/>
    </contour>
    <contour>
      <point x="302" y="676"/>
      <point x="302" y="696" type="qcurve" smooth="yes"/>
      <point x="302" y="718"/>
      <point x="274" y="746"/>
      <point x="254" y="746" type="qcurve" smooth="yes"/>
      <point x="234" y="746"/>
      <point x="207" y="718"/>
      <point x="207" y="696" type="qcurve" smooth="yes"/>
      <point x="207" y="676"/>
      <point x="234" y="647"/>
      <point x="254" y="647" type="qcurve" smooth="yes"/>
      <point x="274" y="647"/>
    </contour>
  </outline>
</glyph>
<glyph name="tilde" format="2">
  <advance width="512"/>
  <unicode hex="02DC"/>
  <outline>
    <contour>
      <point x="92" y="689" type="line"/>
      <point x="117" y="712"/>
      <point x="160" y="732"/>
      <point x="186" y="732" type="qcurve" smooth="yes"/>
      <point x="210" y="732"/>
      <point x="245" y="722"/>
      <point x="267" y="712" type="qcurve" smooth="yes"/>
      <point x="289" y="703"/>
      <point x="315" y="693"/>
      <point x="333" y="693" type="qcurve" smooth="yes"/>
      <point x="355" y="693"/>
      <point x="389" y="711"/>
      <point x="419" y="734" type="qcurve"/>
      <point x="419" y="640" type="line"/>
      <point x="394" y="616"/>
      <point x="352" y="597"/>
      <point x="326" y="597" type="qcurve" smooth="yes"/>
      <point x="303" y="597"/>
      <point x="268" y="607"/>
      <point x="246" y="617" type="qcurve" smooth="yes"/>
      <point x="224" y="626"/>
      <point x="198" y="636"/>
      <point x="180" y="636" type="qcurve" smooth="yes"/>
      <point x="158" y="636"/>
      <point x="124" y="620"/>
      <point x="92" y="596" type="qcurve"/>
    </contour>
  </outline>
</glyph>
<glyph name="uni030A" format="2">
  <advance width="0"/>
  <unicode hex="030A"/>
  <outline>
    <contour>
      <point x="-105" y="662"/>
      <point x="-105" y="707" type="qcurve" smooth="yes"/>
      <point x="-105" y="753"/>
      <point x="-45" y="813"/>
      <point x="0" y="813" type="qcurve" smooth="yes"/>
      <point x="45" y="813"/>
      <point x="105" y="753"/>
      <point x="105" y="707" type="qcurve" smooth="yes"/>
      <point x="105" y="662"/>
      <point x="45" y="601"/>
      <point x="0" y="601" type="qcurve" smooth="yes"/>
      <point x="-45" y="601"/>
    </contour>
    <contour>
      <point x="48" y="686"/>
      <point x="48" y="707" type="qcurve" smooth="yes"/>
      <point x="48" y="729"/>
      <point x="20" y="757"/>
      <point x="0" y="757" type="qcurve" smooth="yes"/>
      <point x="-20" y="757"/>
      <point x="-47" y="728"/>
      <point x="-47" y="707" type="qcurve" smooth="yes"/>
      <point x="-47" y="687"/>
      <point x="-19" y="657"/>
      <point x="0" y="657" type="qcurve" smooth="yes"/>
      <point x="20" y="657"/>
    </contour>
  </outline>
</glyph>
<glyph name="bullet" format="2">
  <advance width="463"/>
  <unicode hex="2022"/>
  <outline>
    <contour>
      <point x="83" y="250"/>
      <point x="83" y="315" type="qcurve" smooth="yes"/>
      <point x="83" y="381"/>
      <point x="167" y="465"/>
      <point x="232" y="465" type="qcurve" smooth="yes"/>
      <point x="297" y="465"/>
      <point x="381" y="381"/>
      <point x="381" y="315" type="qcurve" smooth="yes"/>
      <point x="381" y="249"/>
      <point x="297" y="166"/>
      <point x="232" y="166" type="qcurve" smooth="yes"/>
      <point x="167" y="166"/>
    </contour>
  </outline>
</glyph>
<glyph name=".notdef" format="2">
  <advance width="614"/>
  <outline>
    <contour>
      <point x="103" y="707" type="line"/>
      <point x="510" y="707" type="line"/>
      <point x="510" y="0" type="line"/>
      <point x="103" y="0" type="line"/>
    </contour>
    <contour>
      <point x="475" y="35" type="line"/>
      <point x="475" y="672" type="line"/>
      <point x="138" y="672" type="line"/>
      <point x="138" y="35" type="line"/>
    </contour>
  </outline>
</glyph>
